<?xml version="1.0" encoding="UTF-8" standalone="no"?>
<!-- Created with Inkscape (http://www.inkscape.org/) -->

<svg
   xmlns:dc="http://purl.org/dc/elements/1.1/"
   xmlns:cc="http://creativecommons.org/ns#"
   xmlns:rdf="http://www.w3.org/1999/02/22-rdf-syntax-ns#"
   xmlns:svg="http://www.w3.org/2000/svg"
   xmlns="http://www.w3.org/2000/svg"
   xmlns:sodipodi="http://sodipodi.sourceforge.net/DTD/sodipodi-0.dtd"
   xmlns:inkscape="http://www.inkscape.org/namespaces/inkscape"
   id="svg2"
   version="1.1"
   inkscape:version="0.48.4 r9939"
   width="283.46457"
   height="283.46457"
   xml:space="preserve"
   sodipodi:docname="Figure2.svg"><metadata
     id="metadata8"><rdf:RDF><cc:Work
         rdf:about=""><dc:format>image/svg+xml</dc:format><dc:type
           rdf:resource="http://purl.org/dc/dcmitype/StillImage" /><dc:title /></cc:Work></rdf:RDF></metadata><defs
     id="defs6"><clipPath
       clipPathUnits="userSpaceOnUse"
       id="clipPath20"><path
         d="m 59.04,73.44 522.72,0 0,659.52 -522.72,0 0,-659.52 z"
         id="path22"
         inkscape:connector-curvature="0" /></clipPath><clipPath
       clipPathUnits="userSpaceOnUse"
       id="clipPath68"><path
         d="m 59.04,73.44 522.72,0 0,659.52 -522.72,0 0,-659.52 z"
         id="path70"
         inkscape:connector-curvature="0" /></clipPath><clipPath
       clipPathUnits="userSpaceOnUse"
       id="clipPath96"><path
         d="m 59.04,73.44 522.72,0 0,659.52 -522.72,0 0,-659.52 z"
         id="path98"
         inkscape:connector-curvature="0" /></clipPath><clipPath
       clipPathUnits="userSpaceOnUse"
       id="clipPath138"><path
         d="m 59.04,73.44 522.72,0 0,659.52 -522.72,0 0,-659.52 z"
         id="path140"
         inkscape:connector-curvature="0" /></clipPath><filter
       id="filter3037"
       inkscape:label="Desaturate"
       x="0"
       y="0"
       width="1"
       height="1"
       inkscape:menu="Color"
       inkscape:menu-tooltip="Render in shades of gray by reducing saturation to zero"
       color-interpolation-filters="sRGB"><feColorMatrix
         id="feColorMatrix3039"
         type="saturate"
         values="0" /></filter><filter
       id="filter3041"
       inkscape:label="Desaturate"
       x="0"
       y="0"
       width="1"
       height="1"
       inkscape:menu="Color"
       inkscape:menu-tooltip="Render in shades of gray by reducing saturation to zero"
       color-interpolation-filters="sRGB"><feColorMatrix
         id="feColorMatrix3043"
         type="saturate"
         values="0" /></filter><filter
       id="filter3045"
       inkscape:label="Desaturate"
       x="0"
       y="0"
       width="1"
       height="1"
       inkscape:menu="Color"
       inkscape:menu-tooltip="Render in shades of gray by reducing saturation to zero"
       color-interpolation-filters="sRGB"><feColorMatrix
         id="feColorMatrix3047"
         type="saturate"
         values="0" /></filter><filter
       id="filter3049"
       inkscape:label="Desaturate"
       x="0"
       y="0"
       width="1"
       height="1"
       inkscape:menu="Color"
       inkscape:menu-tooltip="Render in shades of gray by reducing saturation to zero"
       color-interpolation-filters="sRGB"><feColorMatrix
         id="feColorMatrix3051"
         type="saturate"
         values="0" /></filter><filter
       id="filter3053"
       inkscape:label="Desaturate"
       x="0"
       y="0"
       width="1"
       height="1"
       inkscape:menu="Color"
       inkscape:menu-tooltip="Render in shades of gray by reducing saturation to zero"
       color-interpolation-filters="sRGB"><feColorMatrix
         id="feColorMatrix3055"
         type="saturate"
         values="0" /></filter></defs><sodipodi:namedview
     pagecolor="#ffffff"
     bordercolor="#666666"
     borderopacity="1"
     objecttolerance="10"
     gridtolerance="10"
     guidetolerance="10"
     inkscape:pageopacity="0"
     inkscape:pageshadow="2"
     inkscape:window-width="1536"
     inkscape:window-height="801"
     id="namedview4"
     showgrid="false"
     units="mm"
     inkscape:zoom="1.89"
     inkscape:cx="160.81292"
     inkscape:cy="135.34532"
     inkscape:window-x="1528"
     inkscape:window-y="-8"
     inkscape:window-maximized="1"
     inkscape:current-layer="g3125" /><g
     id="g10"
     inkscape:groupmode="layer"
     inkscape:label="Figure2"
     transform="matrix(1.25,0,0,-1.25,0,283.46443)"><g
       id="g16"><g
         id="g18"
         clip-path="url(#clipPath20)" /></g><g
       id="g3125"
       transform="matrix(0.28364707,0,0,0.28364707,25.383342,1.3059415)"><g
         id="g24"
         style="filter:url(#filter3053)"><path
   inkscape:connector-curvature="0"
   id="path26"
   style="fill:none;stroke:#000000;stroke-width:0.75;stroke-linecap:round;stroke-linejoin:round;stroke-miterlimit:10;stroke-opacity:1;stroke-dasharray:none"
   d="m 59.04,97.87 0,610.66" /><path
   inkscape:connector-curvature="0"
   id="path28"
   style="fill:none;stroke:#000000;stroke-width:2.82040636;stroke-linecap:round;stroke-linejoin:round;stroke-miterlimit:10;stroke-opacity:1;stroke-dasharray:none"
   d="m 59.04,97.87 -7.2,0" /><path
   inkscape:connector-curvature="0"
   id="path30"
   style="fill:none;stroke:#000000;stroke-width:2.82040636;stroke-linecap:round;stroke-linejoin:round;stroke-miterlimit:10;stroke-opacity:1;stroke-dasharray:none"
   d="m 59.04,301.42 -7.2,0" /><path
   inkscape:connector-curvature="0"
   id="path32"
   style="fill:none;stroke:#000000;stroke-width:2.82040636;stroke-linecap:round;stroke-linejoin:round;stroke-miterlimit:10;stroke-opacity:1;stroke-dasharray:none"
   d="m 59.04,504.98 -7.2,0" /><path
   inkscape:connector-curvature="0"
   id="path34"
   style="fill:none;stroke:#000000;stroke-width:2.82040636;stroke-linecap:round;stroke-linejoin:round;stroke-miterlimit:10;stroke-opacity:1;stroke-dasharray:none"
   d="m 59.04,708.53 -7.2,0" /><text
   id="text36"
   transform="matrix(0,1,1,0,0,0)"
   x="76.659187"
   y="41.759998"><tspan
     id="tspan38"
     sodipodi:role="line"
     y="41.759998"
     x="76.659187"
     style="font-size:22.5632515px;font-variant:normal;font-weight:normal;writing-mode:lr-tb;fill:#000000;fill-opacity:1;fill-rule:nonzero;stroke:none;font-family:Helvetica;-inkscape-font-specification:Helvetica">0.80</tspan></text>


<text
   id="text40"
   transform="matrix(0,1,1,0,0,0)"
   x="280.2092"
   y="41.759998"><tspan
     id="tspan42"
     sodipodi:role="line"
     y="41.759998"
     x="280.2092"
     style="font-size:22.5632515px;font-variant:normal;font-weight:normal;writing-mode:lr-tb;fill:#000000;fill-opacity:1;fill-rule:nonzero;stroke:none;font-family:Helvetica;-inkscape-font-specification:Helvetica">0.85</tspan></text>


<text
   id="text44"
   transform="matrix(0,1,1,0,0,0)"
   x="483.7692"
   y="41.759998"><tspan
     id="tspan46"
     sodipodi:role="line"
     y="41.759998"
     x="483.7692"
     style="font-size:22.5632515px;font-variant:normal;font-weight:normal;writing-mode:lr-tb;fill:#000000;fill-opacity:1;fill-rule:nonzero;stroke:none;font-family:Helvetica;-inkscape-font-specification:Helvetica">0.90</tspan></text>


<text
   id="text48"
   transform="matrix(0,1,1,0,0,0)"
   x="687.32916"
   y="41.759998"><tspan
     id="tspan50"
     sodipodi:role="line"
     y="41.759998"
     x="687.32916"
     style="font-size:22.5632515px;font-variant:normal;font-weight:normal;writing-mode:lr-tb;fill:#000000;fill-opacity:1;fill-rule:nonzero;stroke:none;font-family:Helvetica;-inkscape-font-specification:Helvetica">0.95</tspan></text>


<path
   inkscape:connector-curvature="0"
   id="path52"
   style="fill:none;stroke:#000000;stroke-width:2.82040636;stroke-linecap:round;stroke-linejoin:round;stroke-miterlimit:10;stroke-opacity:1;stroke-dasharray:none"
   d="m 59.04,732.96 0,-659.52 522.72,0" /></g><g
         id="g54"
         style="filter:url(#filter3049)"><text
   id="text56"
   transform="scale(1,-1)"
   style="font-size:28.20406342px"
   x="137.81053"
   y="-7.0224619"><tspan
     id="tspan58"
     sodipodi:role="line"
     y="-7.0224619"
     x="137.81053"
     style="font-size:28.20406342px;font-variant:normal;font-weight:normal;writing-mode:lr-tb;fill:#000000;fill-opacity:1;fill-rule:nonzero;stroke:none;font-family:Helvetica;-inkscape-font-specification:Helvetica">Library Construction Method</tspan></text>


<text
   id="text60"
   transform="matrix(0,1,1,0,12.96,388.53)"><tspan
     id="tspan62"
     sodipodi:role="line"
     y="0"
     x="0"
     style="font-size:28.20406342px;font-variant:normal;font-weight:normal;writing-mode:lr-tb;fill:#000000;fill-opacity:1;fill-rule:nonzero;stroke:none;font-family:Helvetica;-inkscape-font-specification:Helvetica">Rho</tspan></text>


<text
   id="text56-9"
   style="font-size:28.20406342px"
   x="89.121338"
   y="-760.80804"
   transform="scale(1,-1)"><tspan
     id="tspan58-0"
     sodipodi:role="line"
     y="-760.80804"
     x="89.121338"
     style="font-size:28.20406342px;font-variant:normal;font-weight:normal;writing-mode:lr-tb;fill:#000000;fill-opacity:1;fill-rule:nonzero;stroke:none;font-family:Helvetica;-inkscape-font-specification:Helvetica">Rho by Library Construction Method</tspan></text>


</g><g
         id="g64"
         style="filter:url(#filter3045)"><g
           clip-path="url(#clipPath68)"
           id="g66"><path
             inkscape:connector-curvature="0"
             id="path72"
             style="fill:none;stroke:#ff0000;stroke-width:2.82040636;stroke-linecap:round;stroke-linejoin:round;stroke-miterlimit:10;stroke-opacity:1;stroke-dasharray:none"
             d="m 151,389.03 58.08,0" /><path
             inkscape:connector-curvature="0"
             id="path74"
             style="fill:none;stroke:#ff0000;stroke-width:2.82040636;stroke-linecap:round;stroke-linejoin:round;stroke-miterlimit:10;stroke-opacity:1;stroke-dasharray:none"
             d="m 441.4,663.33 58.08,0" /></g></g><g
         id="g76"
         style="filter:url(#filter3041)"><path
   inkscape:connector-curvature="0"
   id="path78"
   style="fill:none;stroke:#000000;stroke-width:0.75;stroke-linecap:round;stroke-linejoin:round;stroke-miterlimit:10;stroke-opacity:1;stroke-dasharray:none"
   d="m 180.04,73.44 290.4,0" /><path
   inkscape:connector-curvature="0"
   id="path80"
   style="fill:none;stroke:#000000;stroke-width:2.82040636;stroke-linecap:round;stroke-linejoin:round;stroke-miterlimit:10;stroke-opacity:1;stroke-dasharray:none"
   d="m 180.04,73.44 0,-7.2" /><path
   inkscape:connector-curvature="0"
   id="path82"
   style="fill:none;stroke:#000000;stroke-width:2.82040636;stroke-linecap:round;stroke-linejoin:round;stroke-miterlimit:10;stroke-opacity:1;stroke-dasharray:none"
   d="m 470.44,73.44 0,-7.2" /><text
   id="text84"
   transform="scale(1,-1)"
   x="155.99323"
   y="-47.52"><tspan
     id="tspan86"
     sodipodi:role="line"
     y="-47.52"
     x="155.99323"
     style="font-size:22.5632515px;font-variant:normal;font-weight:normal;writing-mode:lr-tb;fill:#000000;fill-opacity:1;fill-rule:nonzero;stroke:none;font-family:Helvetica;-inkscape-font-specification:Helvetica">NEB</tspan></text>


<text
   id="text88"
   transform="scale(1,-1)"
   x="432.09839"
   y="-47.52"><tspan
     id="tspan90"
     sodipodi:role="line"
     y="-47.52"
     x="432.09839"
     style="font-size:22.5632515px;font-variant:normal;font-weight:normal;writing-mode:lr-tb;fill:#000000;fill-opacity:1;fill-rule:nonzero;stroke:none;font-family:Helvetica;-inkscape-font-specification:Helvetica">TagSeq</tspan></text>


</g><g
         id="g92"
         style="filter:url(#filter3037)"><g
           clip-path="url(#clipPath96)"
           id="g94"><path
             inkscape:connector-curvature="0"
             id="path100"
             style="fill:#440154;fill-opacity:1;fill-rule:nonzero;stroke:none"
             d="m 178.66,424.91 c 0,1.78 1.46,3.24 3.24,3.24 1.78,0 3.24,-1.46 3.24,-3.24 0,-1.78 -1.46,-3.24 -3.24,-3.24 -1.78,0 -3.24,1.46 -3.24,3.24" /><path
             inkscape:connector-curvature="0"
             id="path102"
             style="fill:#440154;fill-opacity:1;fill-rule:nonzero;stroke:none"
             d="m 175.6,381.09 c 0,1.79 1.46,3.24 3.24,3.24 1.78,0 3.24,-1.45 3.24,-3.24 0,-1.78 -1.46,-3.24 -3.24,-3.24 -1.78,0 -3.24,1.46 -3.24,3.24" /><path
             inkscape:connector-curvature="0"
             id="path104"
             style="fill:#440154;fill-opacity:1;fill-rule:nonzero;stroke:none"
             d="m 175.63,359.66 c 0,1.79 1.46,3.24 3.24,3.24 1.78,0 3.24,-1.45 3.24,-3.24 0,-1.78 -1.46,-3.24 -3.24,-3.24 -1.78,0 -3.24,1.46 -3.24,3.24" /><path
             inkscape:connector-curvature="0"
             id="path106"
             style="fill:#440154;fill-opacity:1;fill-rule:nonzero;stroke:none"
             d="m 181.83,390.47 c 0,1.78 1.46,3.24 3.24,3.24 1.78,0 3.24,-1.46 3.24,-3.24 0,-1.78 -1.46,-3.24 -3.24,-3.24 -1.78,0 -3.24,1.46 -3.24,3.24" /><path
             inkscape:connector-curvature="0"
             id="path108"
             style="fill:#31688e;fill-opacity:1;fill-rule:nonzero;stroke:none"
             d="m 472.55,637.97 c 0,1.78 1.46,3.24 3.24,3.24 1.78,0 3.24,-1.46 3.24,-3.24 0,-1.78 -1.46,-3.24 -3.24,-3.24 -1.78,0 -3.24,1.46 -3.24,3.24" /><path
             inkscape:connector-curvature="0"
             id="path110"
             style="fill:#31688e;fill-opacity:1;fill-rule:nonzero;stroke:none"
             d="m 474.11,679.23 c 0,1.79 1.46,3.24 3.24,3.24 1.78,0 3.24,-1.45 3.24,-3.24 0,-1.78 -1.46,-3.24 -3.24,-3.24 -1.78,0 -3.24,1.46 -3.24,3.24" /><path
             inkscape:connector-curvature="0"
             id="path112"
             style="fill:#31688e;fill-opacity:1;fill-rule:nonzero;stroke:none"
             d="m 468.26,675.6 c 0,1.78 1.46,3.24 3.24,3.24 1.78,0 3.24,-1.46 3.24,-3.24 0,-1.79 -1.46,-3.24 -3.24,-3.24 -1.78,0 -3.24,1.45 -3.24,3.24" /><path
             inkscape:connector-curvature="0"
             id="path114"
             style="fill:#31688e;fill-opacity:1;fill-rule:nonzero;stroke:none"
             d="m 474.22,660.5 c 0,1.78 1.46,3.24 3.24,3.24 1.78,0 3.24,-1.46 3.24,-3.24 0,-1.79 -1.46,-3.24 -3.24,-3.24 -1.78,0 -3.24,1.45 -3.24,3.24" /></g></g></g></g></svg>